#!OML:ASF F:\VICON\USERDATA\INSTALL\rory3\rory3.ASF
:FULLY-SPECIFIED
:DEGREES
561
root 4.63885 15.8544 2.0473 22.0629 -7.47811 -3.77637
lowerback 12.5339 -0.798505 3.84666
upperback 3.77937 -0.561484 0.787121
thorax -3.08653 -0.289384 -1.26376
lowerneck -15.2212 -0.856018 -0.936199
upperneck 36.9069 -0.103416 -2.61071
head 15.5454 -0.573403 -0.973697
rclavicle 1.56046e-014 -2.00773e-014
rhumerus -72.2791 44.9835 -84.4502
rradius 63.5439
rwrist -8.87798
rhand -10.484 -40.7707
rfingers 7.12502
rthumb 15.5176 -70.168
lclavicle 1.56046e-014 -2.00773e-014
lhumerus -64.5291 -60.2178 81.2717
lradius 55.0234
lwrist 28.8447
lhand -19.6041 -32.1613
lfingers 7.12502
lthumb 6.722 -2.28803
rfemur -76.8163 1.39521 18.7883
rtibia 39.3229
rfoot 38.722 2.58608
rtoes 4.78127
lfemur -56.0144 0.00870144 -26.8038
ltibia 60.6084
lfoot -24.0672 4.80298
ltoes 13.2877
562
root 4.63154 15.848 2.04178 21.9763 -7.61175 -3.67238
lowerback 12.7058 -0.711742 3.57764
upperback 3.91204 -0.478409 0.746545
thorax -3.03605 -0.246059 -1.16656
lowerneck -15.4317 -0.895049 -0.823219
upperneck 36.7851 -0.195846 -2.60526
head 15.533 -0.594545 -1.00669
rclavicle 8.64713e-015 -1.80894e-014
rhumerus -71.9822 44.9994 -84.0364
rradius 63.4597
rwrist -9.08885
rhand -10.1936 -41.0705
rfingers 7.12502
rthumb 15.7972 -70.4459
lclavicle 8.64713e-015 -1.80894e-014
lhumerus -64.3495 -60.5599 80.98
lradius 55.0053
lwrist 29.0861
lhand -20.2742 -32.3661
lfingers 7.12502
lthumb 6.07513 -2.47319
rfemur -76.7796 1.52588 18.6213
rtibia 39.3152
rfoot 38.7236 2.39698
rtoes 4.96669
lfemur -55.9748 0.118643 -26.948
ltibia 60.6413
lfoot -24.0906 4.86899
ltoes 14.042
563
root 4.62654 15.8482 2.03697 21.9277 -7.67684 -3.61874
lowerback 12.7337 -0.673031 3.3992
upperback 3.94524 -0.44902 0.758381
thorax -3.01428 -0.230946 -1.05817
lowerneck -15.1634 -0.97234 -1.14161
upperneck 36.6324 -0.309029 -2.35495
head 15.3946 -0.649263 -0.857326
rclavicle -1.14301e-014 8.34896e-015
rhumerus -71.9994 45.2927 -83.8797
rradius 63.2685
rwrist -9.14943
rhand -10.0177 -41.0017
rfingers 7.12502
rthumb 15.9666 -70.3636
lclavicle -1.14301e-014 8.34896e-015
lhumerus -64.3002 -60.5627 80.7911
lradius 54.9511
lwrist 28.9129
lhand -20.0886 -31.9034
lfingers 7.12502
lthumb 6.25432 -2.01574
rfemur -76.7361 1.61242 18.5126
rtibia 39.3067
rfoot 38.7182 2.2703
rtoes 5.38767
lfemur -55.9875 0.152382 -26.9922
ltibia 60.6537
lfoot -24.111 4.76817
ltoes 14.5797
564
root 4.62331 15.8462 2.0333 21.9691 -7.69317 -3.53487
lowerback 12.642 -0.75372 3.22195
upperback 3.85492 -0.57576 0.817393
thorax -3.06268 -0.294895 -0.877932
lowerneck -14.529 -0.891703 -1.43788
upperneck 36.4736 -0.108214 -2.37807
head 15.172 -0.607275 -0.771954
rclavicle 1.95803e-014 2.18663e-015
rhumerus -72.2065 45.8277 -83.913
rradius 63.0144
rwrist -9.16103
rhand -10.1793 -40.6187
rfingers 7.12502
rthumb 15.811 -69.9931
lclavicle 1.95803e-014 2.18663e-015
lhumerus -64.6605 -60.1854 80.9406
lradius 54.8272
lwrist 28.7003
lhand -18.9653 -30.9181
lfingers 7.12502
lthumb 7.33861 -1.06534
rfemur -76.8121 1.58708 18.4459
rtibia 39.3084
rfoot 38.7357 2.23858
rtoes 5.2417
lfemur -56.0962 0.172711 -27.077
ltibia 60.6636
lfoot -24.1158 4.56354
ltoes 14.8823
